<svg xmlns="http://www.w3.org/2000/svg" id="svg326" version="1.1" viewBox="0 0 400 225"><defs id="defs274"><style id="style272">.cls-1{fill:#fff}.cls-2{fill:#34495e}.cls-4{fill:#e58833}.cls-5{fill:#97baf6}</style></defs><g id="g587" transform="translate(-269.507 245.9)"><g id="g1737" transform="translate(-6.5 2.077)"><path id="rect278" d="M413.67-46.85h176.874V57.437H413.67z" class="cls-1" style="stroke-width:.94063" transform="skewY(-16.119)scale(.96069 1)"/><path id="polygon280" d="M239.43 69.6 280 110.63l10 10.4v54.47H118v-22.88l39.01-39.49 19.49 19.75 15.46-15.58z" class="cls-2" transform="matrix(1 -.289 0 .85 278.447 -171.342)"/><ellipse id="circle282" cx="442.119" cy="-24.146" class="cls-2" rx="18.82" ry="15.368" style="stroke-width:.94063" transform="skewY(-16.119)scale(.96069 1)"/><path id="path284" d="M540.717-179.988a15.677 22.277 54.276 1 0-20.27 23.079 15.677 22.277 54.276 0 0 20.27-23.08" style="opacity:.25;stroke-width:.921954"/><path id="path288" d="M536.667-182.269a15.677 22.277 54.276 1 0-20.27 23.088 15.677 22.277 54.276 0 0 20.27-23.088" class="cls-4" style="stroke-width:.921954"/><path id="path292" d="M527.967-178.42a1.222 1.736 54.276 0 1-1.58 1.8l-6.84 1.976v5.814a1.222 1.736 54.276 0 1-1.58 1.8l-3.15.91a1.222 1.736 54.276 0 1-1.58-.886v-5.814l-6.79 1.962a1.222 1.736 54.276 0 1-1.58-.886v-2.678a1.222 1.736 54.276 0 1 1.58-1.8l6.84-1.976v-5.814a1.222 1.736 54.276 0 1 1.58-1.8l3.15-.91a1.222 1.736 54.276 0 1 1.58.886v5.814l6.84-1.977a1.222 1.736 54.276 0 1 1.58.887z" class="cls-1" style="stroke-width:.921954"/><path id="path294" d="M520.577-118.068a15.677 22.277 54.276 1 0-20.27 23.088 15.677 22.277 54.276 0 0 20.27-23.088" style="opacity:.25;stroke-width:.921954"/><path id="path298" d="M516.527-120.374a15.677 22.277 54.276 1 0-20.27 23.088 15.677 22.277 54.276 0 0 20.27-23.088" class="cls-4" style="stroke-width:.921954"/><path id="path302" d="M507.827-116.517a1.222 1.736 54.276 0 1-1.58 1.8l-6.8 1.965v5.814a1.222 1.736 54.276 0 1-1.58 1.8l-3.15.91a1.222 1.736 54.276 0 1-1.58-.886v-5.814l-6.84 1.976a1.222 1.736 54.276 0 1-1.58-.886v-2.686a1.222 1.736 54.276 0 1 1.58-1.8l6.84-1.976v-5.814a1.222 1.736 54.276 0 1 1.58-1.8l3.15-.91a1.222 1.736 54.276 0 1 1.58.886v5.814l6.84-1.977a1.222 1.736 54.276 0 1 1.58.887z" class="cls-1" style="stroke-width:.921954"/><path id="path306" d="M460.847-138.622a15.677 22.277 54.276 1 0-20.27 23.087 15.677 22.277 54.276 0 0 20.27-23.088" style="opacity:.25;stroke-width:.921954"/><path id="path310" d="M456.797-140.895a15.677 22.277 54.276 1 0-20.27 23.088 15.677 22.277 54.276 0 0 20.27-23.088" class="cls-4" style="stroke-width:.921954"/><path id="path314" d="M448.107-137.074a1.222 1.736 54.276 0 1-1.58 1.8l-6.84 1.976v5.814a1.222 1.736 54.276 0 1-1.58 1.8l-3.16.913a1.222 1.736 54.276 0 1-1.58-.886v-5.78l-6.84 1.976a1.222 1.736 54.276 0 1-1.57-.923v-2.643a1.222 1.736 54.276 0 1 1.58-1.8l6.84-1.977v-5.814a1.222 1.736 54.276 0 1 1.58-1.8l3.15-.91a1.222 1.736 54.276 0 1 1.58.887v5.814l6.84-1.977a1.222 1.736 54.276 0 1 1.58.886z" class="cls-1" style="stroke-width:.921954"/><path id="path316" d="M567.657-210.656v104.694l-170.59 49.3v-104.694zm12.91-14.705-196.41 56.763v126.65l196.41-56.763z" class="cls-5" style="stroke-width:.921954"/><path id="path316-6" d="m371.448-172.27 12.71 3.672v126.65l-12.71-3.672z" class="cls-5" style="fill:#b9d1f9;fill-opacity:1;stroke-width:.921954"/><path id="rect1495-5" d="m567.857-229.007-196.409 56.764 12.707 3.672 196.409-56.762-12.707-3.672z" style="font-variation-settings:normal;opacity:1;vector-effect:none;fill:#dae7fb;fill-opacity:1;fill-rule:evenodd;stroke-width:.921954;stroke-linecap:butt;stroke-linejoin:miter;stroke-miterlimit:4;stroke-dasharray:none;stroke-dashoffset:0;stroke-opacity:1;-inkscape-stroke:none;stop-color:#000;stop-opacity:1"/></g></g></svg>